<svg xmlns="http://www.w3.org/2000/svg" viewBox="0 0 512 512" width="64" height="64">
  <defs>
    <linearGradient id="bgGrad" x1="0%" y1="0%" x2="100%" y2="100%">
      <stop offset="0%" stop-color="#4f46e5" />
      <stop offset="50%" stop-color="#7c3aed" />
      <stop offset="100%" stop-color="#db2777" />
    </linearGradient>
    <linearGradient id="paperGrad" x1="0%" y1="0%" x2="100%" y2="100%">
      <stop offset="0%" stop-color="#ffffff" />
      <stop offset="100%" stop-color="#f1f5f9" />
    </linearGradient>
  </defs>

  <rect width="512" height="512" rx="120" fill="url(#bgGrad)" />
  <path d="M140 100 H300 L380 180 V400 C380 411.046 371.046 420 360 420 H140 C128.954 420 120 411.046 120 400 V120 C120 108.954 128.954 100 140 100 Z" fill="url(#paperGrad)" />
  <path d="M300 100 V180 H380 Z" fill="#cbd5e1" opacity="0.8" />

  <rect x="150" y="210" width="80" height="34" rx="8" fill="#ef4444" />
  <text x="190" y="234" fill="#ffffff" font-family="Arial, sans-serif" font-size="20" font-weight="900" text-anchor="middle">PDF</text>

  <rect x="150" y="265" width="200" height="14" rx="7" fill="#64748b" opacity="0.6" />
  <rect x="150" y="295" width="160" height="14" rx="7" fill="#64748b" opacity="0.6" />

  <g transform="translate(320, 310) scale(1.4)">
    <circle cx="28" cy="28" r="32" fill="#4f46e5" />
    <path d="M28 8 L32 24 L48 28 L32 32 L28 48 L24 32 L8 28 L24 24 Z" fill="#fbbf24" />
  </g>
</svg>
